# AST/ASF file generated using VICON BodyLanguage
# -----------------------------------------------
:version 1.10
:name VICON
:units
  mass 1.0
  length 0.45
  angle deg
:documentation
   .ast/.asf automatically generated from VICON data using
   VICON BodyBuilder and BodyLanguage model FoxedUp or BRILLIANT.MOD
:root
   order TX TY TZ RX RY RZ
   axis XYZ
   position 0 0 0  
   orientation 0 0 0 
:bonedata
  begin
     id 1 
     name lhipjoint
     direction 0.541323 -0.757556 0.364798 
     length 2.47576 
     axis 0 0 0  XYZ
  end
  begin
     id 2 
     name lfemur
     direction 0.34202 -0.939693 0  
     length 7.46493  
     axis 0 0 20  XYZ
    dof rx ry rz
    limits (-160.0 20.0)
           (-70.0 70.0)
           (-60.0 70.0)
  end
  begin
     id 3 
     name ltibia
     direction 0.34202 -0.939693 0   
     length 7.73805   
     axis 0 0 20   XYZ
    dof rx
    limits (-10.0 170.0)
  end
  begin
     id 4 
     name lfoot
     direction 0.107174 -0.294458 0.949636   
     length 2.25864   
     axis -90 7.62852e-016 20   XYZ
    dof rx rz
    limits (-45.0 90.0)
           (-70.0 20.0)
  end
  begin
     id 5 
     name ltoes
     direction 1.53606e-011 -4.21934e-011 1   
     length 1.12451   
     axis -90 7.62852e-016 20   XYZ
    dof rx
    limits (-90.0 20.0)
  end
  begin
     id 6 
     name rhipjoint
     direction -0.524745 -0.766967 0.36933   
     length 2.44538  
     axis 0 0 0  XYZ 
  end
  begin
     id 7 
     name rfemur
     direction -0.34202 -0.939693 0   
     length 7.61604   
     axis 0 0 -20   XYZ
    dof rx ry rz
    limits (-160.0 20.0)
           (-70.0 70.0)
           (-70.0 60.0)
  end
  begin
     id 8 
     name rtibia
     direction -0.34202 -0.939693 0   
     length 7.61056   
     axis 0 0 -20   XYZ
    dof rx
    limits (-10.0 170.0)
 end
 begin
     id 9 
     name rfoot
     direction -0.12616 -0.346623 0.929482   
     length 2.46372  
     axis -90 -7.62852e-016 -20   XYZ
    dof rx rz
    limits (-45.0 90.0)
           (-20.0 70.0)
  end
  begin
     id 10 
     name rtoes
     direction -1.53531e-011 -4.22004e-011 1   
     length 1.21611   
     axis -90 -7.62852e-016 -20   XYZ
    dof rx
    limits (-90.0 20.0)
  end
  begin
     id 11 
     name lowerback
     direction -0.000778023 0.997293 -0.0735223   
     length 2.06139   
     axis 0 0 0   XYZ
    dof rx ry rz
    limits (-20.0 45.0)
           (-30.0 30.0)
           (-30.0 30.0)
  end
  begin
     id 12 
     name upperback
     direction 0.0222598 0.999722 -0.0078355   
     length 2.06383   
     axis 0 0 0   XYZ
    dof rx ry rz
    limits (-20.0 45.0)
           (-30.0 30.0)
           (-30.0 30.0)
  end
  begin
     id 13 
     name thorax
     direction 0.0219654 0.999405 0.0265994   
     length 2.07163   
     axis 0 0 0   XYZ
    dof rx ry rz
    limits (-20.0 45.0)
           (-30.0 30.0)
           (-30.0 30.0)
  end
  begin
     id 14 
     name lowerneck
     direction 0.0213282 0.988147 0.15202   
     length 1.75969   
     axis 0 0 0   XYZ
    dof rx ry rz
    limits (-20.0 45.0)
           (-30.0 30.0)
           (-30.0 30.0)
  end
  begin
     id 15 
     name upperneck
     direction -0.0546456 0.982624 -0.177379   
     length 1.79244   
     axis 0 0 0   XYZ
    dof rx ry rz
    limits (-20.0 45.0)
           (-30.0 30.0)
           (-30.0 30.0)
  end
  begin
     id 16
     name head
     direction -0.0199987 0.996855 -0.076686  
     length 1.80555  
     axis 0 0 0   XYZ
    dof rx ry rz
    limits (-20.0 45.0)
           (-30.0 30.0)
           (-30.0 30.0)
  end
  begin
     id 17 
     name lclavicle
     direction 0.929565 0.363219 -0.063096  
     length 3.55722  
     axis 0 0 0   XYZ
    dof ry rz
    limits (-20.0 10.0)
           (0.0 20.0)
  end
  begin
     id 18 
     name lhumerus
     direction 1 -4.48993e-011 -2.36203e-027   
     length 4.92785   
     axis 180 -30 -90   XYZ
    dof rx ry rz
    limits (-60.0 90.0)
           (-90.0 90.0)
           (-90.0 90.0)
  end
  begin
     id 19
     name lradius
     direction 1 -4.48947e-011 2.02997e-027   
     length 3.44052   
     axis 180 -30 -90   XYZ
    dof rx
    limits (-10.0 170.0)
  end
  begin
     id 20
     name lwrist
     direction 1 -4.48962e-011 1.45991e-027   
     length 1.72026   
     axis 1.49639e-024 90 90   XYZ
    dof ry
    limits (-180.0 0.0)
 end
  begin
     id 21 
     name lhand
     direction 1 -4.48984e-011 2.91906e-027   
     length 0.654326   
     axis -1.863e-015 90 90   XYZ
    dof rx rz
    limits (-90.0 90.0)
           (-45.0 45.0)
  end
  begin
     id 22 
     name lfingers
     direction 1 -4.48961e-011 5.83968e-027   
     length 0.527534   
     axis -3.72598e-015 90 90   XYZ
    dof rx
    limits (0.0 90.0)
  end
  begin
     id 23
     name lthumb
     direction 0.707107 -6.34963e-011 0.707107   
     length 0.757437   
     axis -90 45 -6.68868e-015   XYZ
    dof rx rz
    limits (-45.0 45.0)
           (-45.0 45.0)
  end
  begin
     id 24 
     name rclavicle
     direction -0.902944 0.422599 -0.0781198   
     length 3.54432  
     axis 0 0 0   XYZ 
    dof ry rz
    limits (-10.0 20.0)
           (-20.0 0.0)
  end
  begin
     id 25 
     name rhumerus
     direction -1 -4.48953e-011 -4.75835e-028  
     length 5.09181   
     axis 180 30 90   XYZ
    dof rx ry rz
    limits (-90.0 60.0)
           (-90.0 90.0)
           (-90.0 90.0)
  end
  begin
     id 26 
     name rradius
     direction -1 -4.48986e-011 -3.25889e-027   
     length 3.49865   
     axis 180 30 90   XYZ
    dof rx
    limits (-10.0 170.0)
  end
  begin
     id 27 
     name rwrist
     direction -1 -4.48963e-011 1.45989e-027   
     length 1.74933   
     axis 1.49639e-024 -90 -90   XYZ
    dof ry
    limits (-180.0 0.0)
  end
  begin
     id 28
     name rhand
     direction -1 -4.49003e-011 2.91844e-027   
     length 0.66641   
     axis -1.863e-015 -90 -90   XYZ
    dof rx rz
    limits (-90.0 90.0)
           (-45.0 45.0)
  end
  begin
     id 29
     name rfingers
     direction -1 -4.48973e-011 5.83886e-027   
     length 0.537277   
     axis -3.72598e-015 -90 -90   XYZ
    dof rx
    limits (0.0 90.0)
  end
  begin
     id 30
     name rthumb
     direction -0.707107 -6.34976e-011 0.707107   
     length 0.771425   
     axis -90 -45 6.68868e-015   XYZ
    dof rx rz
    limits (-45.0 45.0)
           (-45.0 45.0)
  end
:hierarchy
  begin
    root lhipjoint rhipjoint lowerback
    lhipjoint lfemur
    lfemur ltibia
    ltibia lfoot
    lfoot ltoes
    rhipjoint rfemur
    rfemur rtibia
    rtibia rfoot
    rfoot rtoes
    lowerback upperback
    upperback thorax
    thorax lowerneck lclavicle rclavicle
    lowerneck upperneck
    upperneck head
    lclavicle lhumerus
    lhumerus lradius
    lradius lwrist
    lwrist lhand lthumb
    lhand lfingers
    rclavicle rhumerus
    rhumerus rradius
    rradius rwrist
    rwrist rhand rthumb
    rhand rfingers
  end

#!OML:ASF H:\LiuWeirdWalks\Patient Classification 1\Patient 1\Session 1\male.ASF
:FULLY-SPECIFIED
:DEGREES
102
root 0.809344 17.9765 -31.2887 2.67154 2.64023 -2.89804
lowerback 3.33545 -3.51333 1.38872
upperback -1.28076 -4.51158 3.93381
thorax -2.97687 -2.23999 3.54019
lowerneck -23.1364 1.95747 5.4236
upperneck 24.7733 3.06867 -7.80228
head 12.2392 0.828151 -3.35488
rclavicle -1.27471e-014 -7.95139e-016
rhumerus -34.9148 -7.63065 -74.1819
rradius 27.9572
rwrist -5.04406
rhand -17.098 -2.88938
rfingers 7.12502
rthumb 9.14074 -32.6713
lclavicle -1.27471e-014 -7.95139e-016
lhumerus -36.3666 14.1762 81.0125
lradius 30.8359
lwrist 10.237
lhand -12.3136 1.77269
lfingers 7.12502
lthumb 13.7548 31.298
rfemur -8.36876 0.175102 19.9894
rtibia 27.2172
rfoot -12.1555 -20.828
rtoes -4.32988
lfemur -8.59827 -2.19347 -18.6777
ltibia 26.3587
lfoot -11.7128 17.172
ltoes -5.81917
103
root 0.836325 17.9735 -31.2827 2.65089 2.63113 -2.83713
lowerback 3.3575 -3.52019 1.3037
upperback -1.26752 -4.52431 3.94273
thorax -2.96763 -2.24488 3.59828
lowerneck -23.1132 1.93304 5.38672
upperneck 24.7736 3.04394 -7.78734
head 12.2317 0.815911 -3.34691
rclavicle 2.26615e-014 0
rhumerus -35.0793 -7.47766 -74.1434
rradius 28.1757
rwrist -5.07246
rhand -17.0137 -2.76002
rfingers 7.12502
rthumb 9.22214 -32.5383
lclavicle 2.26615e-014 0
lhumerus -36.3478 14.0721 81.08
lradius 31.0285
lwrist 10.3742
lhand -12.3328 1.68207
lfingers 7.12502
lthumb 13.7363 31.2087
rfemur -8.38927 0.157325 19.828
rtibia 27.3549
rfoot -12.1782 -20.8222
rtoes -4.40195
lfemur -8.53685 -2.1434 -18.8367
ltibia 26.3444
lfoot -11.7449 17.1327
ltoes -5.85248
104
root 0.864331 17.9705 -31.2764 2.63712 2.5944 -2.75283
lowerback 3.38874 -3.53679 1.21857
upperback -1.27371 -4.54917 3.94581
thorax -2.98344 -2.2556 3.65274
lowerneck -23.0648 1.94274 5.37482
upperneck 24.77 3.06896 -7.80396
head 12.2231 0.824495 -3.34657
rclavicle 2.42269e-014 -1.35174e-014
rhumerus -35.2516 -7.28925 -74.1105
rradius 28.3631
rwrist -5.06012
rhand -16.9393 -2.61722
rfingers 7.12502
rthumb 9.29393 -32.3924
lclavicle 2.42269e-014 -1.35174e-014
lhumerus -36.3662 13.9892 81.1281
lradius 31.2161
lwrist 10.4995
lhand -12.3501 1.60523
lfingers 7.12502
lthumb 13.7196 31.133
rfemur -8.42453 0.132833 19.6298
rtibia 27.509
rfoot -12.2288 -20.7775
rtoes -4.43823
lfemur -8.47439 -2.06415 -19.0273
ltibia 26.3244
lfoot -11.7845 17.0894
ltoes -5.86964
105
root 0.893042 17.9674 -31.2706 2.63183 2.52985 -2.65326
lowerback 3.46096 -3.32736 0.89064
upperback -1.27937 -4.28124 4.0032
thorax -3.01539 -2.1151 3.8857
lowerneck -23.0549 1.58763 5.09507
upperneck 24.796 2.62414 -7.65876
head 12.1877 0.618563 -3.31944
rclavicle 1.22253e-014 -5.56597e-015
rhumerus -35.5703 -7.60779 -73.7221
rradius 28.5889
rwrist -5.06057
rhand -16.8678 -2.49292
rfingers 7.12502
rthumb 9.36295 -32.265
lclavicle 1.22253e-014 -5.56597e-015
lhumerus -36.1739 13.4271 81.5467
lradius 31.3218
lwrist 10.5711
lhand -12.3666 1.5569
lfingers 7.12502
lthumb 13.7037 31.0857
rfemur -8.48176 0.109883 19.4059
rtibia 27.6767
rfoot -12.2869 -20.7061
rtoes -4.47482
lfemur -8.42042 -1.94604 -19.2383
ltibia 26.3041
lfoot -11.8299 17.0333
ltoes -5.86997
106
root 0.921519 17.9642 -31.2664 2.64496 2.45262 -2.56234
lowerback 3.54036 -3.18341 0.638827
upperback -1.29896 -4.09702 4.04924
thorax -3.07015 -2.01736 4.07046
lowerneck -23.0378 1.34987 4.89142
upperneck 24.8015 2.33283 -7.56351
head 12.1591 0.481869 -3.29742
rclavicle -5.77469e-014 3.18055e-015
rhumerus -35.8394 -7.75193 -73.4532
rradius 28.7941
rwrist -5.10351
rhand -16.8349 -2.42435
rfingers 7.12502
rthumb 9.39468 -32.195
lclavicle -5.77469e-014 3.18055e-015
lhumerus -36.0314 13.0032 81.8537
lradius 31.4376
lwrist 10.6478
lhand -12.3652 1.58927
lfingers 7.12502
lthumb 13.705 31.118
rfemur -8.57352 0.105879 19.1914
rtibia 27.8541
rfoot -12.3484 -20.6386
rtoes -4.49962
lfemur -8.39881 -1.80566 -19.4377
ltibia 26.2907
lfoot -11.874 16.9637
ltoes -5.85836
107
root 0.949874 17.9608 -31.263 2.66342 2.35969 -2.47778
lowerback 3.58373 -3.0296 0.385641
upperback -1.29163 -3.90202 4.09529
thorax -3.07936 -1.91479 4.25187
lowerneck -23.0212 1.10461 4.67893
upperneck 24.7772 2.02836 -7.45405
head 12.1187 0.340431 -3.26948
rclavicle 5.49143e-015 -7.15625e-015
rhumerus -36.0643 -7.92304 -73.197
rradius 28.9928
rwrist -5.21786
rhand -16.85 -2.44435
rfingers 7.12502
rthumb 9.38008 -32.2156
lclavicle 5.49143e-015 -7.15625e-015
lhumerus -35.8311 12.5703 82.167
lradius 31.5416
lwrist 10.7311
lhand -12.3416 1.64187
lfingers 7.12502
lthumb 13.7278 31.169
rfemur -8.67855 0.124816 18.984
rtibia 28.0347
rfoot -12.413 -20.5757
rtoes -4.52441
lfemur -8.39178 -1.65675 -19.63
ltibia 26.2879
lfoot -11.9209 16.9015
ltoes -5.84232
108
root 0.977413 17.9573 -31.2609 2.69313 2.29804 -2.4033
lowerback 3.61032 -2.96538 0.221873
upperback -1.28473 -3.82327 4.12428
thorax -3.08 -1.8722 4.37096
lowerneck -22.993 0.997089 4.57281
upperneck 24.7124 1.89957 -7.41275
head 12.0765 0.278884 -3.25476
rclavicle -3.04389e-014 4.53229e-014
rhumerus -36.2181 -7.89112 -73.0961
rradius 29.1845
rwrist -5.45221
rhand -16.9294 -2.58918
rfingers 7.12502
rthumb 9.30346 -32.3639
lclavicle -3.04389e-014 4.53229e-014
lhumerus -35.6815 12.3054 82.3454
lradius 31.6755
lwrist 10.8425
lhand -12.2994 1.74626
lfingers 7.12502
lthumb 13.7684 31.2707
rfemur -8.79997 0.143226 18.795
rtibia 28.2188
rfoot -12.4716 -20.5425
rtoes -4.55455
lfemur -8.4158 -1.51522 -19.8032
ltibia 26.2963
lfoot -11.9676 16.8153
ltoes -5.82675
109
root 1.00515 17.9532 -31.2578 2.70619 2.22872 -2.34656
lowerback 3.60923 -3.0395 0.220174
upperback -1.27092 -3.92301 4.12472
thorax -3.05776 -1.92247 4.37712
lowerneck -22.9372 1.13255 4.63734
upperneck 24.611 2.0859 -7.48216
head 12.0419 0.360375 -3.2573
rclavicle 1.03368e-014 -7.15625e-015
rhumerus -36.2529 -7.55064 -73.222
rradius 29.3232
rwrist -5.75595
rhand -17.0501 -2.80975
rfingers 7.12502
rthumb 9.18698 -32.5896
lclavicle 1.03368e-014 -7.15625e-015
lhumerus -35.6438 12.3496 82.2943
lradius 31.8442
lwrist 10.9646
lhand -12.2758 1.86527
lfingers 7.12502
lthumb 13.7912 31.3881
rfemur -8.90367 0.169303 18.6252
rtibia 28.4079
rfoot -12.5284 -20.5091
rtoes -4.60673
lfemur -8.42093 -1.38222 -19.9583
ltibia 26.3093
lfoot -12.0253 16.746
ltoes -5.80358
110
root 1.03285 17.9487 -31.2551 2.71902 2.19593 -2.28345
lowerback 3.60731 -3.51957 0.668823
upperback -1.29661 -4.54432 4.00251
thorax -3.08295 -2.24163 4.0346
lowerneck -22.8743 1.89582 5.08851
upperneck 24.5192 3.09056 -7.76989
head 12.0843 0.815569 -3.27187
rclavicle -1.67725e-014 1.51076e-014
rhumerus -36.0283 -6.36659 -73.9806
rradius 29.3231
rwrist -6.02737
rhand -17.197 -3.04105
rfingers 7.12502
rthumb 9.04525 -32.8271
lclavicle -1.67725e-014 1.51076e-014
lhumerus -35.9886 13.2171 81.5606
lradius 32.1429
lwrist 11.178
lhand -12.251 1.95717
lfingers 7.12502
lthumb 13.8151 31.4784
rfemur -9.00939 0.168175 18.4499
rtibia 28.6094
rfoot -12.5751 -20.4857
rtoes -4.6873
lfemur -8.43169 -1.27956 -20.119
ltibia 26.3242
lfoot -12.0792 16.6714
ltoes -5.78806
111
root 1.06056 17.9436 -31.2519 2.72011 2.16548 -2.21699
lowerback 3.60476 -3.9419 1.04447
upperback -1.31702 -5.09147 3.8998
thorax -3.11042 -2.52215 3.75105
lowerneck -22.7891 2.57338 5.50323
upperneck 24.43 3.98308 -8.03865
head 12.1213 1.22008 -3.29046
rclavicle -4.25896e-014 2.22639e-014
rhumerus -35.8594 -5.3132 -74.6288
rradius 29.3238
rwrist -6.31088
rhand -17.3555 -3.30239
rfingers 7.12502
rthumb 8.89234 -33.095
lclavicle -4.25896e-014 2.22639e-014
lhumerus -36.2876 13.9578 80.9224
lradius 32.4058
lwrist 11.3585
lhand -12.2452 1.98397
lfingers 7.12502
lthumb 13.8207 31.5048
rfemur -9.10839 0.164515 18.2709
rtibia 28.828
rfoot -12.6125 -20.4637
rtoes -4.80664
lfemur -8.42745 -1.17393 -20.2831
ltibia 26.3373
lfoot -12.1315 16.5926
ltoes -5.77805
112
root 1.08816 17.9385 -31.2494 2.72754 2.17355 -2.13194
lowerback 3.62806 -4.72202 1.80336
upperback -1.39233 -6.09584 3.69294
thorax -3.24857 -3.03753 3.18545
lowerneck -22.6585 3.79515 6.24893
upperneck 24.3419 5.59102 -8.48779
head 12.2379 1.95168 -3.30814
rclavicle 6.13251e-014 -8.74653e-015
rhumerus -35.5176 -3.51542 -75.7873
rradius 29.1883
rwrist -6.46698
rhand -17.4926 -3.49883
rfingers 7.12502
rthumb 8.76005 -33.297
lclavicle 6.13251e-014 -8.74653e-015
lhumerus -36.9893 15.4187 79.6717
lradius 32.7916
lwrist 11.6225
lhand -12.2529 1.97244
lfingers 7.12502
lthumb 13.8133 31.4938
rfemur -9.22157 0.132611 18.0732
rtibia 29.0692
rfoot -12.6507 -20.4508
rtoes -4.93919
lfemur -8.43628 -1.06896 -20.4642
ltibia 26.353
lfoot -12.1848 16.4798
ltoes -5.77381
113
root 1.11605 17.9331 -31.2469 2.73057 2.19265 -2.025
lowerback 3.67101 -5.07085 2.07362
upperback -1.42887 -6.54676 3.59346
thorax -3.33538 -3.26759 2.97055
lowerneck -22.5943 4.3133 6.53883
upperneck 24.2824 6.27797 -8.66047
head 12.2828 2.26406 -3.30079
rclavicle 3.89369e-014 -7.15625e-015
rhumerus -35.4358 -2.76346 -76.2404
rradius 29.1365
rwrist -6.58446
rhand -17.6005 -3.66872
rfingers 7.12502
rthumb 8.65592 -33.4713
lclavicle 3.89369e-014 -7.15625e-015
lhumerus -37.2482 15.9605 79.1519
lradius 33.0192
lwrist 11.7968
lhand -12.2719 1.93393
lfingers 7.12502
lthumb 13.7949 31.4566
rfemur -9.33864 0.0812545 17.8473
rtibia 29.3345
rfoot -12.7048 -20.4277
rtoes -5.07186
lfemur -8.43866 -0.955462 -20.6722
ltibia 26.3714
lfoot -12.2389 16.3541
ltoes -5.77528
114
root 1.14297 17.9277 -31.2456 2.73453 2.23619 -1.92434
lowerback 3.70977 -5.2277 2.10856
upperback -1.43806 -6.75325 3.55578
thorax -3.36864 -3.37121 2.93074
lowerneck -22.56 4.51976 6.65374
upperneck 24.2281 6.55392 -8.74192
head 12.2887 2.38834 -3.30117
rclavicle 2.57923e-014 -4.05521e-014
rhumerus -35.4391 -2.51903 -76.3624
rradius 29.0973
rwrist -6.63405
rhand -17.6737 -3.78925
rfingers 7.12502
rthumb 8.58526 -33.5947
lclavicle 2.57923e-014 -4.05521e-014
lhumerus -37.2816 16.1116 78.9737
lradius 33.1826
lwrist 11.8997
lhand -12.3021 1.92974
lfingers 7.12502
lthumb 13.7658 31.4543
rfemur -9.46903 0.0293366 17.6364
rtibia 29.6241
rfoot -12.7774 -20.4275
rtoes -5.17233
lfemur -8.45145 -0.828464 -20.8662
ltibia 26.3978
lfoot -12.2986 16.1931
ltoes -5.78221
